#Comment line ignore any data following # character 
#Hierarchical Translation and Rotation (.htr) file 
[Header]	
#Header keywords are followed by a single value 
FileType HTR		#Single word string
DataType HTRS		#Translation followed by rotation and scale data
FileVersion 1		#integer
NumSegments 64		#integer
NumFrames 3		#integer
DataFrameRate 30		#integer, data frame rate in this file
EulerRotationOrder ZYX
CalibrationUnits mm
RotationUnits Degrees
GlobalAxisofGravity Y
BoneLengthAxis Y
ScaleFactor 1.00
[SegmentNames&Hierarchy]
#CHILD	PARENT
Pinger_Root GLOBAL
Pelvis Pinger_Root
L_Hip Pelvis
R_Hip Pelvis
Rear_Leg01 Pelvis
Spine1 Pelvis
L_Leg01 L_Hip
L_Leg02 L_Leg01
L_Leg03 L_Leg02
L_Foot L_Leg03
L_Toe1_01 L_Foot
L_Toe2_01 L_Foot
L_Toe3_01 L_Foot
planeAlignerLeft L_Foot
L_Toe1_02 L_Toe1_01
L_Toe1_03 L_Toe1_02
L_Toe2_02 L_Toe2_01
L_Toe2_03 L_Toe2_02
L_Toe3_02 L_Toe3_01
L_Toe3_03 L_Toe3_02
planeLockWeightLeft planeAlignerLeft
R_Leg01 R_Hip
R_Leg02 R_Leg01
R_Leg03 R_Leg02
R_Foot R_Leg03
planeAlignerRight R_Foot
R_Toe1_01 R_Foot
R_Toe2_01 R_Foot
R_Toe3_01 R_Foot
planeLockWeightRight planeAlignerRight
R_Toe1_02 R_Toe1_01
R_Toe1_03 R_Toe1_02
R_Toe2_02 R_Toe2_01
R_Toe2_03 R_Toe2_02
R_Toe3_02 R_Toe3_01
R_Toe3_03 R_Toe3_02
Rear_Leg02 Rear_Leg01
Rear_Leg03 Rear_Leg02
Rear_Leg04 Rear_Leg03
Rear_Foot Rear_Leg04
planeAlignerCenter Rear_Foot
Rear_Toe1_01 Rear_Foot
Rear_Toe2_01 Rear_Foot
Rear_Toe3_01 Rear_Foot
planeLockWeightCenter planeAlignerCenter
Rear_Toe1_02 Rear_Toe1_01
Rear_Toe1_03 Rear_Toe1_02
Rear_Toe2_02 Rear_Toe2_01
Rear_Toe2_03 Rear_Toe2_02
Rear_Toe3_02 Rear_Toe3_01
Rear_Toe3_03 Rear_Toe3_02
Back_Bone Spine1
Head Spine1
Motor_Bone Back_Bone
Ping_Mechanism Back_Bone
BN_LookIK Head
bottomMouth Head
L_Mouth01 Head
L_mouthFront Head
mouthGun Head
R_Mouth01 Head
R_mouthFront Head
TopMouth Head
weapon_bone Head
[BasePosition]
#SegmentName Tx, Ty, Tz, Rx, Ry, Rz, BoneLength
Pinger_Root 0.000000 0.000000 0.000000 -90.000000 0.000000 0.000000 10.000000 
Pelvis 0.000000 0.000000 0.000000 0.000000 0.000000 0.000000 10.000000 
L_Hip 0.000000 0.000000 0.000000 0.000000 0.000000 0.000000 10.000000 
R_Hip 0.000000 0.000000 0.000000 0.000000 0.000000 0.000000 10.000000 
Rear_Leg01 0.000000 0.000000 0.000000 0.000000 0.000000 0.000000 10.000000 
Spine1 0.000000 0.000000 0.000000 0.000000 0.000000 0.000000 10.000000 
L_Leg01 0.000000 0.000000 0.000000 0.000000 0.000000 0.000000 10.000000 
L_Leg02 0.000000 0.000000 0.000000 0.000000 0.000000 0.000000 10.000000 
L_Leg03 0.000000 0.000000 0.000000 0.000000 0.000000 0.000000 10.000000 
L_Foot 0.000000 0.000000 0.000000 0.000000 0.000000 0.000000 10.000000 
L_Toe1_01 0.000000 0.000000 0.000000 0.000000 0.000000 0.000000 10.000000 
L_Toe2_01 0.000000 0.000000 0.000000 0.000000 0.000000 0.000000 10.000000 
L_Toe3_01 0.000000 0.000000 0.000000 0.000000 0.000000 0.000000 10.000000 
planeAlignerLeft 0.000000 0.000000 0.000000 0.000000 0.000000 0.000000 10.000000 
L_Toe1_02 0.000000 0.000000 0.000000 0.000000 0.000000 0.000000 10.000000 
L_Toe1_03 0.000000 0.000000 0.000000 0.000000 0.000000 0.000000 10.000000 
L_Toe2_02 0.000000 0.000000 0.000000 0.000000 0.000000 0.000000 10.000000 
L_Toe2_03 0.000000 0.000000 0.000000 0.000000 0.000000 0.000000 10.000000 
L_Toe3_02 0.000000 0.000000 0.000000 0.000000 0.000000 0.000000 10.000000 
L_Toe3_03 0.000000 0.000000 0.000000 0.000000 0.000000 0.000000 10.000000 
planeLockWeightLeft 0.000000 0.000000 0.000000 0.000000 0.000000 0.000000 10.000000 
R_Leg01 0.000000 0.000000 0.000000 0.000000 0.000000 0.000000 10.000000 
R_Leg02 0.000000 0.000000 0.000000 0.000000 0.000000 0.000000 10.000000 
R_Leg03 0.000000 0.000000 0.000000 0.000000 0.000000 0.000000 10.000000 
R_Foot 0.000000 0.000000 0.000000 0.000000 0.000000 0.000000 10.000000 
planeAlignerRight 0.000000 0.000000 0.000000 0.000000 0.000000 0.000000 10.000000 
R_Toe1_01 0.000000 0.000000 0.000000 0.000000 0.000000 0.000000 10.000000 
R_Toe2_01 0.000000 0.000000 0.000000 0.000000 0.000000 0.000000 10.000000 
R_Toe3_01 0.000000 0.000000 0.000000 0.000000 0.000000 0.000000 10.000000 
planeLockWeightRight 0.000000 0.000000 0.000000 0.000000 0.000000 0.000000 10.000000 
R_Toe1_02 0.000000 0.000000 0.000000 0.000000 0.000000 0.000000 10.000000 
R_Toe1_03 0.000000 0.000000 0.000000 0.000000 0.000000 0.000000 10.000000 
R_Toe2_02 0.000000 0.000000 0.000000 0.000000 0.000000 0.000000 10.000000 
R_Toe2_03 0.000000 0.000000 0.000000 0.000000 0.000000 0.000000 10.000000 
R_Toe3_02 0.000000 0.000000 0.000000 0.000000 0.000000 0.000000 10.000000 
R_Toe3_03 0.000000 0.000000 0.000000 0.000000 0.000000 0.000000 10.000000 
Rear_Leg02 0.000000 0.000000 0.000000 0.000000 0.000000 0.000000 10.000000 
Rear_Leg03 0.000000 0.000000 0.000000 0.000000 0.000000 0.000000 10.000000 
Rear_Leg04 0.000000 0.000000 0.000000 0.000000 0.000000 0.000000 10.000000 
Rear_Foot 0.000000 0.000000 0.000000 0.000000 0.000000 0.000000 10.000000 
planeAlignerCenter 0.000000 0.000000 0.000000 0.000000 0.000000 0.000000 10.000000 
Rear_Toe1_01 0.000000 0.000000 0.000000 0.000000 0.000000 0.000000 10.000000 
Rear_Toe2_01 0.000000 0.000000 0.000000 0.000000 0.000000 0.000000 10.000000 
Rear_Toe3_01 0.000000 0.000000 0.000000 0.000000 0.000000 0.000000 10.000000 
planeLockWeightCenter 0.000000 0.000000 0.000000 0.000000 0.000000 0.000000 10.000000 
Rear_Toe1_02 0.000000 0.000000 0.000000 0.000000 0.000000 0.000000 10.000000 
Rear_Toe1_03 0.000000 0.000000 0.000000 0.000000 0.000000 0.000000 10.000000 
Rear_Toe2_02 0.000000 0.000000 0.000000 0.000000 0.000000 0.000000 10.000000 
Rear_Toe2_03 0.000000 0.000000 0.000000 0.000000 0.000000 0.000000 10.000000 
Rear_Toe3_02 0.000000 0.000000 0.000000 0.000000 0.000000 0.000000 10.000000 
Rear_Toe3_03 0.000000 0.000000 0.000000 0.000000 0.000000 0.000000 10.000000 
Back_Bone 0.000000 0.000000 0.000000 0.000000 0.000000 0.000000 10.000000 
Head 0.000000 0.000000 0.000000 0.000000 0.000000 0.000000 10.000000 
Motor_Bone 0.000000 0.000000 0.000000 0.000000 0.000000 0.000000 10.000000 
Ping_Mechanism 0.000000 0.000000 0.000000 0.000000 0.000000 0.000000 10.000000 
BN_LookIK 0.000000 0.000000 0.000000 0.000000 0.000000 0.000000 10.000000 
bottomMouth 0.000000 0.000000 0.000000 0.000000 0.000000 0.000000 10.000000 
L_Mouth01 0.000000 0.000000 0.000000 0.000000 0.000000 0.000000 10.000000 
L_mouthFront 0.000000 0.000000 0.000000 0.000000 0.000000 0.000000 10.000000 
mouthGun 0.000000 0.000000 0.000000 0.000000 0.000000 0.000000 10.000000 
R_Mouth01 0.000000 0.000000 0.000000 0.000000 0.000000 0.000000 10.000000 
R_mouthFront 0.000000 0.000000 0.000000 0.000000 0.000000 0.000000 10.000000 
TopMouth 0.000000 0.000000 0.000000 0.000000 0.000000 0.000000 10.000000 
weapon_bone 0.000000 0.000000 0.000000 0.000000 0.000000 0.000000 10.000000 
#Beginning of Data. Separated by tabs
#Fr	Tx	Ty	Tz	Rx	Ry	Rz	SF
[Pinger_Root]
4 0.000000 0.000000 0.000000 -0.000075 -0.000000 -0.000020 0.000000
5 0.000000 0.000000 0.000000 -0.000075 -0.000000 -0.000020 0.000000
6 0.000000 0.000000 0.000000 -0.000075 -0.000000 -0.000020 0.000000
[Pelvis]
4 8.758925 906.601929 4407.888672 -124.004814 -85.231285 116.422607 4500.165527
5 21.966574 909.571045 4411.432129 -118.047104 -85.493935 110.984573 4504.279785
6 59.992935 917.773193 4419.343750 -100.374283 -85.921143 94.732124 4514.034668
[L_Hip]
4 5.766392 125.831482 872.656799 160.158691 -45.484905 122.312202 881.701050
5 5.766392 125.831482 872.656799 160.158691 -45.484905 122.312202 881.701050
6 5.766392 125.831482 872.656799 160.158691 -45.484913 122.312202 881.701050
[R_Hip]
4 5.765438 125.836372 -872.654907 38.087833 49.812687 125.703735 881.699829
5 5.765438 125.836372 -872.654907 38.087841 49.812687 125.703735 881.699829
6 5.765438 125.836372 -872.654907 38.087841 49.812687 125.703735 881.699829
[Rear_Leg01]
4 -192.298416 -925.602966 -0.001907 169.149872 0.962606 -159.680664 945.367432
5 -192.298416 -925.602966 -0.001907 169.767502 0.974290 -159.661484 945.367432
6 -192.298416 -925.602966 -0.001907 171.394135 0.773441 -159.579132 945.367432
[Spine1]
4 290.604584 5.007505 0.000477 7.319806 0.751912 18.807264 290.647736
5 290.604584 5.007505 0.000477 6.800436 -0.120310 18.450130 290.647736
6 290.604584 5.007505 0.000477 5.947282 -1.866166 18.229626 290.647736
[L_Leg01]
4 761.932007 -0.002384 -0.069261 22.867880 -16.132452 -5.070056 761.932068
5 761.932007 -0.002384 -0.069261 23.464828 -17.042446 -6.151365 761.932068
6 761.932007 -0.002384 -0.069261 24.748705 -18.770952 -8.825438 761.932068
[L_Leg02]
4 1441.140503 -0.000954 -0.000715 3.071153 -0.190275 -133.323318 1441.140503
5 1441.140503 -0.000954 -0.000715 2.870193 -0.199218 -131.909958 1441.140503
6 1441.140503 -0.000954 -0.000715 2.419249 -0.203031 -128.466797 1441.140503
[L_Leg03]
4 1686.963989 -0.000715 -0.000954 -0.029876 0.014857 118.668678 1686.963989
5 1686.963989 -0.000715 -0.000954 -0.029939 0.014731 118.185097 1686.963989
6 1686.963989 -0.000715 -0.000954 -0.026638 0.013699 117.418236 1686.963989
[L_Foot]
4 3041.570068 -30.715107 11.297464 2.659611 12.892970 56.426506 3041.746094
5 3041.570068 -30.715107 11.297464 2.836105 13.576233 56.045521 3041.746094
6 3041.570068 -30.715107 11.297464 3.001203 14.747213 55.032593 3041.746094
[L_Toe1_01]
4 -188.216690 -224.732346 -21.137953 93.774147 -6.866133 -172.644836 293.899567
5 -188.216690 -224.732346 -21.137953 94.283165 -6.897812 -173.168747 293.899567
6 -188.216690 -224.732346 -21.137953 94.792488 -6.924867 -173.692963 293.899567
[L_Toe2_01]
4 200.746536 -219.926590 148.838394 -90.319832 -26.523739 -51.844154 332.896027
5 200.746536 -219.926590 148.838394 -90.793121 -26.950733 -51.100830 332.896027
6 200.746536 -219.926590 148.838394 -91.618500 -27.651625 -49.829918 332.896027
[L_Toe3_01]
4 188.832520 -219.859131 -191.078659 -99.669601 14.078593 -66.784973 347.140900
5 188.832520 -219.859131 -191.078659 -99.789787 13.882555 -66.168610 347.140900
6 188.832520 -219.859131 -191.078659 -99.912025 13.687775 -65.552315 347.140900
[planeAlignerLeft]
4 32.990719 -581.458008 101.088402 169.306686 -76.298271 89.968506 591.101196
5 32.017822 -573.145752 102.821503 169.316605 -75.823418 89.968628 583.175293
6 30.402222 -559.293579 105.488434 169.326202 -75.348534 89.969032 569.966125
[L_Toe1_02]
4 413.761139 0.000477 0.000000 0.001384 -25.958122 0.001384 413.761139
5 413.761139 0.000477 0.000000 0.001384 -25.939856 0.001384 413.761139
6 413.761139 0.000477 0.000000 0.001384 -25.921587 0.001384 413.761139
[L_Toe1_03]
4 464.317322 0.000358 -0.000089 0.003759 53.611729 0.003759 464.317322
5 464.317322 0.000358 -0.000089 0.003767 53.695946 0.003767 464.317322
6 464.317322 0.000358 -0.000089 0.003776 53.780151 0.003776 464.317322
[L_Toe2_02]
4 342.235809 -0.000477 0.000238 0.001187 -73.005707 0.001187 342.235809
5 342.235809 -0.000477 0.000238 0.001186 -73.206955 0.001186 342.235809
6 342.235809 -0.000477 0.000238 0.001185 -73.830452 0.001185 342.235809
[L_Toe2_03]
4 420.210846 -0.000715 0.000000 -0.020777 86.538185 -0.017279 420.210846
5 420.210846 -0.000715 0.000000 -0.028911 87.575127 -0.025414 420.210846
6 420.210846 -0.000715 0.000000 -0.089766 89.251137 -0.086269 420.210846
[L_Toe3_02]
4 329.270111 0.000954 0.000000 0.001177 -80.971306 0.001177 329.270111
5 329.270111 0.000954 0.000000 0.001177 -81.135010 0.001177 329.270111
6 329.270111 0.000954 0.000000 0.001177 -81.298607 0.001177 329.270111
[L_Toe3_03]
4 439.137451 -0.001907 0.000954 -179.996628 77.130653 -179.993103 439.137451
5 439.137451 -0.001907 0.000954 -179.996964 76.235268 -179.993454 439.137451
6 439.137451 -0.001907 0.000954 -179.997437 74.752884 -179.993896 439.137451
[planeLockWeightLeft]
4 999.999146 0.098267 0.076020 -0.011826 -0.004376 0.005620 999.999146
5 999.999146 0.098267 0.076002 -0.011826 -0.004376 0.005620 999.999146
6 999.999207 0.098267 0.075984 -0.011826 -0.004376 0.005620 999.999207
[R_Leg01]
4 761.455627 -0.001907 -0.000358 120.610474 -7.347332 37.513939 761.455688
5 761.455627 -0.001907 -0.000358 121.843170 -7.902593 36.086834 761.455688
6 761.455627 -0.001907 -0.000358 124.406349 -8.839707 32.675835 761.455688
[R_Leg02]
4 1441.140625 0.000000 -0.000238 -1.196986 -0.143259 -115.079880 1441.140625
5 1441.140625 0.000000 -0.000238 -1.252673 -0.164226 -117.755943 1441.140625
6 1441.140625 0.000000 -0.000238 -1.389576 -0.202611 -123.752129 1441.140625
[R_Leg03]
4 1686.963989 0.000954 0.001431 0.074066 -0.038430 130.401962 1686.963989
5 1686.963989 0.000954 0.001431 0.074681 -0.040070 130.621414 1686.963989
6 1686.963989 0.000954 0.001431 0.075290 -0.041712 130.840866 1686.963989
[R_Foot]
4 3041.560059 -30.531288 -11.204481 0.237568 -24.704905 53.720284 3041.734131
5 3041.560059 -30.531288 -11.204481 -0.003521 -23.168879 54.986813 3041.734131
6 3041.560059 -30.531288 -11.204481 -0.505001 -19.446028 57.844307 3041.734131
[planeAlignerRight]
4 -127.143860 -574.022888 -312.903290 -36.577137 -71.339012 -64.343925 666.015259
5 -123.796066 -576.458923 -314.755096 -34.672131 -71.566452 -66.169304 668.357056
6 -113.520187 -580.568237 -319.358276 -28.875946 -72.196777 -71.703850 672.261902
[R_Toe1_01]
4 -188.383347 -224.864899 21.052242 76.763535 -0.414595 -172.728699 294.101532
5 -188.383347 -224.864899 21.052242 76.784729 0.363542 -172.547440 294.101532
6 -188.383347 -224.864899 21.052242 76.943680 2.619912 -172.193954 294.101532
[R_Toe2_01]
4 200.637817 -220.002121 -148.787384 -91.743256 32.873833 -59.182163 332.857574
5 200.637817 -220.002121 -148.787384 -91.037750 32.400127 -58.891251 332.857574
6 200.637817 -220.002121 -148.787384 -88.932449 31.012615 -57.877869 332.857574
[R_Toe3_01]
4 188.606735 -220.092957 191.126343 -73.225998 -8.456855 -73.756157 347.192566
5 188.606735 -220.092957 191.126343 -72.545425 -8.656745 -74.117706 347.192566
6 188.606735 -220.092957 191.126343 -70.529457 -9.373333 -74.963005 347.192566
[planeLockWeightRight]
4 999.999695 0.000305 0.076123 -0.011823 -0.004379 -0.000027 999.999695
5 999.999695 0.000305 0.076120 -0.011823 -0.004379 -0.000027 999.999695
6 999.999695 0.000305 0.076116 -0.011823 -0.004379 -0.000027 999.999695
[R_Toe1_02]
4 413.762085 0.000477 -0.000119 0.001393 -24.819864 0.001393 413.762085
5 413.762085 0.000477 -0.000119 0.001393 -24.873329 0.001393 413.762085
6 413.762085 0.000477 -0.000119 0.001392 -24.926790 0.001392 413.762085
[R_Toe1_03]
4 464.317810 0.000000 0.001088 0.006579 69.448921 0.006579 464.317810
5 464.317810 0.000000 0.001088 0.006564 69.400749 0.006564 464.317810
6 464.317810 0.000000 0.001088 0.006421 68.935638 0.006421 464.317810
[R_Toe2_02]
4 342.234741 -0.000954 0.000238 0.001197 -67.105515 0.001197 342.234741
5 342.234741 -0.000954 0.000238 0.001198 -67.066910 0.001198 342.234741
6 342.234741 -0.000954 0.000238 0.001198 -66.865417 0.001198 342.234741
[R_Toe2_03]
4 420.210846 0.000715 -0.000268 0.008231 73.605896 0.008231 420.210846
5 420.210846 0.000715 -0.000268 0.008054 73.242783 0.008054 420.210846
6 420.210846 0.000715 -0.000268 0.007885 72.879639 0.007885 420.210846
[R_Toe3_02]
4 329.270355 -0.000477 -0.000954 0.001184 -74.450325 0.001184 329.270355
5 329.270355 -0.000477 -0.000954 0.001185 -74.427536 0.001185 329.270355
6 329.270355 -0.000477 -0.000954 0.001185 -74.404762 0.001185 329.270355
[R_Toe3_03]
4 439.137939 0.000238 0.001431 -0.011587 83.300278 -0.008085 439.137939
5 439.137939 0.000238 0.001431 -0.011126 82.970215 -0.007623 439.137939
6 439.137939 0.000238 0.001431 -0.010707 82.640060 -0.007203 439.137939
[Rear_Leg02]
4 1162.777710 -0.029802 0.005960 0.698445 -2.903112 -124.975418 1162.777710
5 1162.777710 -0.029802 0.005960 0.679734 -2.904727 -124.673538 1162.777710
6 1162.777710 -0.029802 0.005960 0.635214 -2.915891 -123.751213 1162.777710
[Rear_Leg03]
4 607.192505 -0.013351 -0.073195 0.010635 -0.004800 64.936096 607.192505
5 607.192505 -0.013351 -0.073195 0.009602 -0.004113 64.662888 607.192505
6 607.192505 -0.013351 -0.073195 0.008566 -0.003432 64.389664 607.192505
[Rear_Leg04]
4 995.874512 -0.020504 -0.011921 -0.040681 -0.014717 59.494308 995.874573
5 995.874512 -0.020504 -0.011921 -0.040631 -0.014854 59.110542 995.874573
6 995.874512 -0.020504 -0.011921 -0.040581 -0.014989 58.726765 995.874573
[Rear_Foot]
4 3096.176270 -0.067472 -0.041425 -136.263763 86.376579 56.518085 3096.176270
5 3096.176270 -0.067472 -0.041425 -138.679474 86.203110 54.158524 3096.176270
6 3096.176270 -0.067472 -0.041425 -140.882584 86.023201 52.010948 3096.176270
[planeAlignerCenter]
4 1.038359 -15.216063 -777.169189 12.237058 -0.135826 179.998703 777.318787
5 -1.385921 -15.189209 -774.975464 12.235816 -0.180610 179.998871 775.125549
6 -8.381144 -15.152588 -769.932373 12.236375 -0.859517 179.998215 770.127075
[Rear_Toe1_01]
4 0.653352 83.966492 -371.173737 0.288091 41.914127 90.413170 380.553192
5 0.653352 83.966492 -371.173737 0.576694 41.755505 90.641808 380.553192
6 0.653352 83.966492 -371.173737 1.644021 41.375011 91.515381 380.553192
[Rear_Toe2_01]
4 178.200760 -294.826019 -362.060547 -7.362077 34.407719 -66.402611 499.765686
5 178.200760 -294.826019 -362.060547 -7.417352 34.408138 -66.446373 499.765686
6 178.200760 -294.826019 -362.060547 -8.248234 34.546272 -67.110382 499.765686
[Rear_Toe3_01]
4 -153.359680 -308.780914 -362.060852 3.289418 33.518005 -112.540970 499.952881
5 -153.359680 -308.780914 -362.060852 3.085754 33.311768 -112.707825 499.952881
6 -153.359680 -308.780914 -362.060852 2.324570 32.665497 -113.326050 499.952881
[planeLockWeightCenter]
4 1000.000488 0.000048 0.076228 -0.011814 -0.004373 -0.000015 1000.000488
5 1000.000366 0.000064 0.076215 -0.011814 -0.004373 -0.000015 1000.000366
6 1000.000366 0.000080 0.076203 -0.011814 -0.004373 -0.000015 1000.000366
[Rear_Toe1_02]
4 379.707825 0.194073 0.000477 -0.000252 -31.815588 0.006940 379.707855
5 379.707825 0.194073 0.000477 -0.000255 -31.861870 0.006941 379.707855
6 379.707825 0.194073 0.000477 -0.000259 -31.908144 0.006943 379.707855
[Rear_Toe1_03]
4 500.129700 0.165701 0.000119 -0.000103 51.902481 0.007295 500.129761
5 500.129700 0.165701 0.000119 -0.000064 52.282307 0.007326 500.129761
6 500.129700 0.165701 0.000119 0.000027 53.147743 0.007399 500.129761
[Rear_Toe2_02]
4 340.494507 0.000238 -0.000954 0.001192 -69.945068 0.001192 340.494507
5 340.494507 0.000238 -0.000954 0.001192 -69.975212 0.001192 340.494507
6 340.494507 0.000238 -0.000954 0.001191 -70.308777 0.001191 340.494507
[Rear_Toe2_03]
4 433.103577 0.000000 0.000238 0.006739 69.941582 0.006739 433.103546
5 433.103577 0.000000 0.000238 0.006754 69.985291 0.006754 433.103546
6 433.103577 0.000000 0.000238 0.006946 70.543427 0.006946 433.103546
[Rear_Toe3_02]
4 340.494141 -0.000358 -0.000477 0.008271 -67.230179 -0.009443 340.494171
5 340.494141 -0.000358 -0.000477 0.008265 -67.215340 -0.009437 340.494171
6 340.494141 -0.000358 -0.000477 0.008259 -67.200478 -0.009432 340.494171
[Rear_Toe3_03]
4 433.103577 0.001431 -0.000238 -0.000965 65.894165 -0.004540 433.103546
5 433.103577 0.001431 -0.000238 -0.000962 65.872574 -0.004538 433.103546
6 433.103577 0.001431 -0.000238 -0.000960 65.850967 -0.004535 433.103546
[Back_Bone]
4 1312.175781 -701.934692 0.000954 0.000023 -0.000007 -85.606667 1488.125488
5 1312.175781 -701.934692 0.000954 0.000023 -0.000007 -85.606667 1488.125488
6 1312.175781 -701.934692 0.000954 0.000023 -0.000007 -85.606667 1488.125488
[Head]
4 1406.159424 809.709290 0.001431 -0.115321 -1.539638 7.772129 1622.625488
5 1406.159424 809.709290 0.001431 -0.153971 -1.560975 7.773528 1622.625488
6 1406.159424 809.709290 0.001431 -0.192622 -1.582310 7.774936 1622.625488
[Motor_Bone]
4 1158.364380 -417.834747 0.000477 -0.098507 2.727419 -105.757057 1231.419434
5 1158.364380 -417.834747 0.000477 -0.089007 1.274022 -105.843132 1231.419434
6 1158.364380 -417.834747 0.000477 -0.081888 -2.176434 -106.048195 1231.419434
[Ping_Mechanism]
4 1239.448730 -444.268799 -5.251130 0.000103 -0.000053 82.120995 1316.675903
5 1239.216064 -444.125977 -2.545983 0.000103 -0.000053 82.120995 1316.400757
6 1238.145996 -443.088837 4.066847 0.000103 -0.000053 82.120995 1315.047363
[BN_LookIK]
4 193.241119 1380.371704 -0.002861 0.000000 89.965736 -31.038179 1393.832153
5 193.241119 1380.371704 -0.002861 0.000000 89.965736 -31.038179 1393.832153
6 193.241119 1380.371704 -0.002861 0.000000 89.965736 -31.038179 1393.832153
[bottomMouth]
4 -435.092926 615.759399 -0.000954 -0.000022 0.000016 73.527184 753.966492
5 -435.092926 615.759399 -0.000954 -0.000022 0.000016 73.527184 753.966492
6 -435.092926 615.759399 -0.000954 -0.000022 0.000016 73.527184 753.966492
[L_Mouth01]
4 554.440979 7.658243 838.222046 150.204178 23.759130 109.605339 1005.027161
5 554.440979 7.658243 838.222046 150.204178 23.759130 109.605339 1005.027161
6 554.440979 7.658243 838.222046 150.204178 23.759130 109.605339 1005.027161
[L_mouthFront]
4 551.629089 934.514771 339.150421 0.000081 2.804060 79.119301 1136.941284
5 551.629089 934.514771 339.150421 0.000081 2.804060 79.119301 1136.941284
6 551.629089 934.514771 339.150421 0.000081 2.804060 79.119301 1136.941284
[mouthGun]
4 55.332661 1627.420898 0.000000 0.000023 0.000009 -11.038128 1628.361328
5 55.332661 1627.420898 0.000000 0.000023 0.000009 -11.038128 1628.361328
6 55.332661 1627.420898 0.000000 0.000023 0.000009 -11.038128 1628.361328
[R_Mouth01]
4 554.442383 7.659197 -838.223938 29.795891 -23.759109 109.605331 1005.029541
5 554.442383 7.659197 -838.223938 29.795891 -23.759109 109.605331 1005.029541
6 554.442383 7.659197 -838.223938 29.795891 -23.759109 109.605331 1005.029541
[R_mouthFront]
4 551.629089 934.514282 -339.151367 0.000029 -2.803930 79.119133 1136.941162
5 551.629089 934.514282 -339.151367 0.000029 -2.803930 79.119133 1136.941162
6 551.629089 934.514282 -339.151367 0.000029 -2.803930 79.119133 1136.941162
[TopMouth]
4 461.269867 -56.106091 -0.008583 -0.000059 -0.000268 92.025169 464.669525
5 461.269867 -56.106091 -0.008583 -0.000059 -0.000268 92.025169 464.669525
6 461.269867 -56.106091 -0.008583 -0.000059 -0.000268 92.025169 464.669525
[weapon_bone]
4 -987.239868 1448.372803 0.001431 0.000000 89.965736 -31.038221 1752.833740
5 -987.239868 1448.372803 0.001431 0.000000 89.965736 -31.038221 1752.833740
6 -987.239868 1448.372803 0.001431 0.000000 89.965736 -31.038221 1752.833740
